<svg width="160" height="48" viewBox="0 0 160 48" xmlns="http://www.w3.org/2000/svg" role="img" aria-label="Sasha's Bakeshop">
  <!-- Placeholder mark: a simple wheat/loaf glyph. Replace with brand logo when ready. -->
  <g fill="none" stroke="#b5764a" stroke-width="2.4" stroke-linecap="round" stroke-linejoin="round">
    <path d="M24 8c-6 0-10 5-10 12 0 8 4 20 10 20s10-12 10-20c0-7-4-12-10-12z"/>
    <path d="M24 12v26"/>
    <path d="M24 18c-3-1-5-3-6-6M24 18c3-1 5-3 6-6"/>
    <path d="M24 26c-3-1-5-3-6-6M24 26c3-1 5-3 6-6"/>
    <path d="M24 34c-3-1-5-3-6-6M24 34c3-1 5-3 6-6"/>
  </g>
  <text x="44" y="30" font-family="Georgia, serif" font-size="19" font-weight="700" fill="#2b2320">Sasha's</text>
</svg>
